# xmcd CD database file
#
# Track frame offsets:
#	150
#	14916
#	28351
#	39555
#	51265
#	65975
#	82391
#	100541
#	114623
#	125442
#	141333
#	167865
#	183465
#	201306
#
# Disc length: 3046 seconds
#
# Revision: 0
# Processed by: cddbd v1.5.2PL0 Copyright (c) Steve Scherf et al.
# Submitted via: CDex 1.77
#
DISCID=df0be40e
DTITLE=Ella Fitzgerald - Ella Fitzgerald - The Hidden World Of Ella Fitzgerald (Deluxe Limited Edition) CD2
DYEAR=2016
DGENRE=Jazz
TTITLE0=Dizzy Gillespie feat. Ella Fitzgerald - How high the moon
TTITLE1=Ella Fitzgerald - Solid as a rock
TTITLE2=Ella Fitzgerald - Flying home
TTITLE3=Chris Connor - Flying home
TTITLE4=Ella Fitzgerald - Oh lady be good
TTITLE5=Ella Fitzgerald - Begin the beguine
TTITLE6=Ella Fitzgerald - I get a kick out of you
TTITLE7=Ethel Merman - I get a kick out of you
TTITLE8=Eartha Kitt - Strangers in the starlight
TTITLE9=Ella Fitzgerald and Louis Armstrong - Stars fell on Alabama
TTITLE10=Ella Fitzgerald and Louis Armstrong - Cheek to cheek
TTITLE11=Ella Fitzgerald - You took advantage on me
TTITLE12=Ella Fitzgerald and Louis Armstrong - Makin' whoopee
TTITLE13=Ella Fitzgerald and Louis Armstrong - Autum in New York
EXTD=YEAR: 2016
EXTT0=
EXTT1=
EXTT2=
EXTT3=
EXTT4=
EXTT5=
EXTT6=
EXTT7=
EXTT8=
EXTT9=
EXTT10=
EXTT11=
EXTT12=
EXTT13=
PLAYORDER=
